HIERARCHY
ROOT Hips
{
	OFFSET -0.001795 -0.223333 0.028219
	CHANNELS 6 Xposition Yposition Zposition Zrotation Yrotation Xrotation 
	JOINT LeftUpLeg
	{
		OFFSET 0.069520 -0.091406 -0.006815
		CHANNELS 3 Zrotation Yrotation Xrotation
		JOINT LeftLeg
		{
			OFFSET 0.034277 -0.375199 -0.004496
			CHANNELS 3 Zrotation Yrotation Xrotation
			JOINT LeftFoot
			{
				OFFSET -0.013596 -0.397961 -0.043693
				CHANNELS 3 Zrotation Yrotation Xrotation
				JOINT LeftToe
				{
					OFFSET 0.026358 -0.055791 0.119288
					CHANNELS 3 Zrotation Yrotation Xrotation
					End Site
					{
						OFFSET 0.000000 0.000000 0.000000
					}
				}
			}
		}
	}
	JOINT RightUpLeg
	{
		OFFSET -0.067670 -0.090522 -0.004320
		CHANNELS 3 Zrotation Yrotation Xrotation
		JOINT RightLeg
		{
			OFFSET -0.038290 -0.382569 -0.008850
			CHANNELS 3 Zrotation Yrotation Xrotation
			JOINT RightFoot
			{
				OFFSET 0.015774 -0.398415 -0.042312
				CHANNELS 3 Zrotation Yrotation Xrotation
				JOINT RightToe
				{
					OFFSET -0.025372 -0.048144 0.123348
					CHANNELS 3 Zrotation Yrotation Xrotation
					End Site
					{
						OFFSET 0.000000 0.000000 0.000000
					}
				}
			}
		}
	}
	JOINT Spine
	{
		OFFSET -0.002533 0.108963 -0.026696
		CHANNELS 3 Zrotation Yrotation Xrotation
		JOINT Spine1
		{
			OFFSET 0.005487 0.135180 0.001092
			CHANNELS 3 Zrotation Yrotation Xrotation
			JOINT Spine2
			{
				OFFSET 0.001457 0.052922 0.025425
				CHANNELS 3 Zrotation Yrotation Xrotation
				JOINT Neck
				{
					OFFSET -0.002778 0.213870 -0.042857
					CHANNELS 3 Zrotation Yrotation Xrotation
					JOINT Head
					{
						OFFSET 0.005152 0.064970 0.051349
						CHANNELS 3 Zrotation Yrotation Xrotation
						End Site
						{
							OFFSET 0.000000 0.000000 0.000000
						}
					}
				}
				JOINT LeftShoulder
				{
					OFFSET 0.078845 0.121749 -0.034090
					CHANNELS 3 Zrotation Yrotation Xrotation
					JOINT LeftArm
					{
						OFFSET 0.090977 0.030469 -0.008868
						CHANNELS 3 Zrotation Yrotation Xrotation
						JOINT LeftForeArm
						{
							OFFSET 0.259612 -0.012772 -0.027456
							CHANNELS 3 Zrotation Yrotation Xrotation
							JOINT LeftHand
							{
								OFFSET 0.249234 0.008986 -0.001171
								CHANNELS 3 Zrotation Yrotation Xrotation
								End Site
								{
									OFFSET 0.000000 0.000000 0.000000
								}
							}
						}
					}
				}
				JOINT RightShoulder
				{
					OFFSET -0.081759 0.118833 -0.038615
					CHANNELS 3 Zrotation Yrotation Xrotation
					JOINT RightArm
					{
						OFFSET -0.096012 0.032551 -0.009143
						CHANNELS 3 Zrotation Yrotation Xrotation
						JOINT RightForeArm
						{
							OFFSET -0.253742 -0.013329 -0.021401
							CHANNELS 3 Zrotation Yrotation Xrotation
							JOINT RightHand
							{
								OFFSET -0.255298 0.007772 -0.005559
								CHANNELS 3 Zrotation Yrotation Xrotation
								End Site
								{
									OFFSET 0.000000 0.000000 0.000000
								}
							}
						}
					}
				}
			}
		}
	}
}
MOTION
Frames: 17
Frame Time: 0.050000
0.007316 0.904855 -0.064077 0.415906 6.511829 9.237033 6.601711 -1.828544 -30.879048 -8.895711 1.727098 35.373370 6.801552 12.775640 -7.526468 0.000000 0.000000 0.000000 -8.361535 0.510057 -31.622187 11.369317 -4.758101 36.194986 -6.789888 -16.893249 -1.515117 0.000000 0.000000 0.000000 -0.841043 -0.165870 5.416672 3.093347 -0.354423 -16.627723 -1.503593 -4.383101 17.464233 6.463072 -4.422375 -7.848638 0.000000 0.000000 0.000000 3.282237 45.011620 -15.048107 -11.771008 2.977742 -1.560468 -101.951898 -62.450990 77.351594 0.000000 0.000000 0.000000 -14.386325 -42.193996 -9.140166 17.210710 -4.138976 -2.134119 115.938228 68.215790 97.563291 0.000000 0.000000 0.000000 
0.007802 0.907321 -0.060507 1.082931 7.586364 10.604830 5.773048 -2.152463 -31.262704 -7.513485 1.002192 33.618323 6.096878 10.989016 -7.529805 0.000000 0.000000 0.000000 -9.282603 0.152262 -32.184427 13.038020 -5.468505 34.200630 -8.737713 -21.702607 -1.140843 0.000000 0.000000 0.000000 -1.313839 -0.088334 4.461587 3.473228 -0.368312 -18.020685 -1.439452 -3.860679 18.351780 7.158952 -4.800021 -8.349167 0.000000 0.000000 0.000000 2.503384 50.810470 -17.670827 -11.181208 9.466013 -1.708528 -80.311621 -61.206423 55.470546 0.000000 0.000000 0.000000 -16.868737 -50.694557 -10.350288 17.360103 -12.603897 -2.762127 96.020081 61.499957 69.777403 0.000000 0.000000 0.000000 
0.008644 0.911058 -0.057924 1.520498 8.837402 11.451510 5.573052 -2.337363 -31.468440 -7.093527 0.690400 32.307192 5.373755 9.364352 -6.827486 0.000000 0.000000 0.000000 -9.712009 -0.074120 -31.382140 13.930655 -5.827546 32.370271 -9.196628 -23.032614 -2.349108 0.000000 0.000000 0.000000 -0.803281 -0.114762 4.090848 2.851533 -0.063702 -20.304180 -2.064755 -4.557922 19.714802 5.872688 -3.480167 -10.812889 0.000000 0.000000 0.000000 1.162231 53.774947 -19.760871 -9.760793 12.071465 -1.493161 -64.012689 -62.625461 43.769714 0.000000 0.000000 0.000000 -17.316536 -55.607477 -11.525030 16.234796 -16.234381 -2.729868 87.304779 57.498013 57.632237 0.000000 0.000000 0.000000 
0.010303 0.911535 -0.057047 2.004106 8.266215 11.948496 5.359482 -2.257838 -30.595422 -7.616656 0.976054 30.337748 5.230508 8.674027 -7.718736 0.000000 0.000000 0.000000 -10.229070 -0.164544 -32.173190 14.547869 -5.926784 31.882425 -9.097624 -22.955760 -3.255071 0.000000 0.000000 0.000000 -0.983450 -0.078330 3.588581 1.695094 0.272629 -21.570888 -1.026572 -3.025876 20.510893 5.135961 -2.660270 -12.057405 0.000000 0.000000 0.000000 1.553602 52.065172 -18.929315 -7.867040 12.561106 -1.114866 -51.339611 -63.974912 35.033304 0.000000 0.000000 0.000000 -17.518667 -56.971514 -12.023714 15.530763 -17.687054 -2.576792 84.061478 52.380160 50.298391 0.000000 0.000000 0.000000 
0.012873 0.911101 -0.057915 2.231037 7.472917 11.425371 5.889109 -2.021095 -29.915038 -8.748461 1.485548 30.864683 5.485044 9.490490 -7.409749 0.000000 0.000000 0.000000 -10.036369 -0.006484 -31.615183 13.965256 -5.641866 32.550204 -9.395060 -23.628847 -2.847702 0.000000 0.000000 0.000000 -0.719793 -0.126503 4.305139 1.554907 0.296941 -21.734801 -1.236861 -1.283074 19.919824 4.557514 -2.071355 -12.072739 0.000000 0.000000 0.000000 3.067530 50.776943 -17.425982 -5.487461 11.122669 -0.607469 -42.232876 -61.360088 26.904885 0.000000 0.000000 0.000000 -17.726509 -55.466715 -11.572511 15.599511 -17.022148 -2.500943 84.234841 45.437984 44.156710 0.000000 0.000000 0.000000 
0.016145 0.910176 -0.060673 2.110986 7.151202 11.552440 6.586082 -1.885899 -30.413209 -9.747083 1.925562 31.752287 5.403511 9.491876 -6.996361 0.000000 0.000000 0.000000 -10.259230 -0.070630 -32.988110 14.243584 -6.001112 34.501241 -8.531542 -21.433126 -2.942961 0.000000 0.000000 0.000000 -0.357536 -0.173676 4.713717 1.566719 0.320153 -22.994293 -1.042956 0.088194 19.992804 4.678736 -1.807972 -13.454849 0.000000 0.000000 0.000000 5.314367 49.814455 -15.724236 -4.362747 9.310933 -0.405361 -43.281831 -56.584734 24.701488 0.000000 0.000000 0.000000 -19.766095 -54.399879 -10.293038 15.575665 -16.576410 -2.408297 87.146878 33.855762 34.996111 0.000000 0.000000 0.000000 
0.019801 0.909402 -0.064605 2.408279 7.108561 11.897417 6.776215 -1.892104 -31.063546 -10.981348 2.429988 32.461974 5.945185 11.065187 -6.432129 0.000000 0.000000 0.000000 -11.008294 -0.301328 -33.847144 14.600809 -6.285748 35.288339 -8.682944 -21.678745 -1.793145 0.000000 0.000000 0.000000 -0.329990 -0.176994 4.743801 1.927125 0.215738 -22.426063 -1.200426 0.423410 18.996888 3.519471 -0.858555 -14.122010 0.000000 0.000000 0.000000 4.921903 50.263101 -15.982376 -3.343502 7.425022 -0.237155 -49.293963 -54.215792 26.866126 0.000000 0.000000 0.000000 -21.748038 -53.470259 -8.931187 16.174500 -17.753738 -2.577903 95.575695 26.007702 31.247010 0.000000 0.000000 0.000000 
0.023392 0.908407 -0.069148 2.909592 7.147988 12.921231 6.845695 -2.048826 -33.214645 -11.852548 2.871015 34.650568 5.775816 10.826466 -6.150046 0.000000 0.000000 0.000000 -11.780477 -0.618041 -35.768111 14.768980 -6.654499 37.000420 -8.600650 -21.495030 -1.892447 0.000000 0.000000 0.000000 -0.277914 -0.195949 5.083100 1.715051 0.294075 -23.304535 -1.402346 0.002023 18.527882 3.233197 -0.666794 -14.354848 0.000000 0.000000 0.000000 6.097700 50.953893 -15.499092 -4.242223 7.139136 -0.400149 -61.183825 -54.138213 34.094331 0.000000 0.000000 0.000000 -21.388412 -53.566459 -9.017614 16.938670 -17.972400 -2.786247 102.186267 22.205239 29.702023 0.000000 0.000000 0.000000 
0.026476 0.905518 -0.073934 2.901393 7.287186 13.196968 6.836121 -2.156876 -34.413482 -12.395359 3.127023 35.624872 6.048020 11.552225 -6.076432 0.000000 0.000000 0.000000 -12.543256 -0.952002 -37.102645 15.564440 -7.231866 37.932099 -9.001497 -22.440824 -1.690909 0.000000 0.000000 0.000000 0.013599 -0.205369 4.673419 1.968390 0.194607 -21.942454 -1.610286 -0.280197 17.156672 2.888841 -0.308818 -15.496615 0.000000 0.000000 0.000000 5.056877 51.277111 -16.063866 -5.730496 6.548298 -0.664617 -75.200404 -58.105815 47.075918 0.000000 0.000000 0.000000 -20.512646 -53.784808 -9.330653 17.878651 -18.415193 -3.048139 106.135807 21.591302 30.716630 0.000000 0.000000 0.000000 
0.028596 0.902066 -0.078665 2.865225 7.182138 13.432896 6.752621 -2.254152 -35.509915 -12.383627 3.221938 37.227590 5.849476 10.926155 -6.643661 0.000000 0.000000 0.000000 -13.321481 -1.271095 -38.254347 16.248882 -7.833289 39.421537 -8.786727 -21.929146 -2.010436 0.000000 0.000000 0.000000 0.294334 -0.242183 4.884052 1.756905 0.238672 -21.667931 -1.441662 -0.856176 16.310194 2.650050 -0.089738 -16.744038 0.000000 0.000000 0.000000 3.494964 51.343824 -16.944130 -8.864629 5.205602 -1.170009 -96.984412 -60.526334 68.334475 0.000000 0.000000 0.000000 -18.471813 -53.266122 -10.153437 19.496946 -17.109861 -3.391745 109.845015 22.344827 33.414539 0.000000 0.000000 0.000000 
0.029697 0.897409 -0.083089 2.479611 7.002571 13.066448 7.185149 -2.182307 -36.430110 -12.268351 3.310829 39.108326 5.763287 10.781248 -6.492173 0.000000 0.000000 0.000000 -13.514393 -1.377424 -39.137686 16.441085 -8.139997 40.824519 -8.512772 -21.270321 -2.563679 0.000000 0.000000 0.000000 0.570883 -0.258556 4.703334 1.831463 0.164195 -20.018189 -1.540927 -0.990509 14.645812 2.395397 0.108397 -17.307611 0.000000 0.000000 0.000000 2.083397 49.431896 -16.881239 -13.070421 3.675439 -1.765399 -117.059983 -60.024722 89.069230 0.000000 0.000000 0.000000 -15.168039 -50.594675 -11.110710 21.724296 -16.572141 -3.908297 114.971502 25.144889 40.853763 0.000000 0.000000 0.000000 
0.030171 0.893027 -0.087181 2.031919 6.644654 12.620651 7.919850 -1.979387 -37.152757 -12.505729 3.628147 41.391583 5.772194 10.909954 -6.191888 0.000000 0.000000 0.000000 -13.110138 -1.219512 -39.656238 16.108375 -8.117709 42.192567 -8.216341 -20.560683 -3.347208 0.000000 0.000000 0.000000 0.884127 -0.283228 4.643659 1.721606 0.148373 -18.876605 -1.556660 -1.387615 13.361275 2.922745 -0.267265 -17.433376 0.000000 0.000000 0.000000 0.551946 47.197214 -16.798995 -17.613822 0.850704 -2.171597 -130.557296 -56.643924 102.536735 0.000000 0.000000 0.000000 -12.140174 -46.952931 -11.499852 24.394752 -14.306035 -4.307382 119.233205 27.798940 48.187291 0.000000 0.000000 0.000000 
0.030253 0.888662 -0.091082 1.563539 6.303867 11.897133 8.577898 -1.772657 -37.746887 -12.713594 3.940241 43.497077 5.946880 11.306823 -6.310936 0.000000 0.000000 0.000000 -12.742562 -1.020618 -39.376885 16.030779 -8.073713 42.685901 -8.021870 -20.053657 -3.584109 0.000000 0.000000 0.000000 1.011634 -0.296196 4.713695 1.643945 0.101405 -17.141545 -1.400029 -1.875076 11.865412 2.519193 -0.139446 -17.031796 0.000000 0.000000 0.000000 0.621605 44.415525 -15.604447 -21.851936 -0.849227 -2.473514 -136.887311 -52.743560 107.541711 0.000000 0.000000 0.000000 -10.569862 -43.200614 -10.976298 26.916855 -12.105386 -4.561375 122.914235 31.454324 57.322768 0.000000 0.000000 0.000000 
0.030221 0.886693 -0.094773 1.032570 5.355859 11.708037 9.666431 -1.357746 -38.596038 -13.098221 4.476499 44.960536 6.028814 11.473396 -6.571146 0.000000 0.000000 0.000000 -12.111887 -0.655864 -39.729021 15.424960 -7.631946 43.369986 -7.773238 -19.428617 -3.641786 0.000000 0.000000 0.000000 0.931651 -0.285933 4.682855 2.034404 -0.042253 -16.937269 -1.212608 -2.230968 11.636036 2.863092 -0.417340 -17.433474 0.000000 0.000000 0.000000 1.619742 42.680967 -14.491323 -24.115163 -1.435585 -2.633950 -139.396993 -50.325983 109.203586 0.000000 0.000000 0.000000 -10.311410 -39.637278 -9.940134 28.368949 -9.332163 -4.438209 127.412774 34.542751 66.966243 0.000000 0.000000 0.000000 
0.029921 0.885420 -0.098029 0.670353 4.635208 11.949807 10.631053 -0.993483 -39.672619 -13.739482 5.114908 46.073194 6.008319 11.708078 -5.636822 0.000000 0.000000 0.000000 -11.793180 -0.428695 -40.184216 15.161457 -7.338207 43.484932 -7.424279 -18.548028 -3.566974 0.000000 0.000000 0.000000 1.018883 -0.271998 4.265682 1.975896 -0.060261 -16.481841 -0.969591 -1.950795 11.553941 3.533800 -0.731922 -18.460783 0.000000 0.000000 0.000000 2.448975 41.391716 -13.638317 -24.732096 -0.789704 -2.805546 -140.248939 -46.636058 106.007016 0.000000 0.000000 0.000000 -10.605111 -38.292166 -9.397732 28.389925 -8.807028 -4.362500 131.539249 36.020449 74.672124 0.000000 0.000000 0.000000 
0.029462 0.885403 -0.100325 0.340768 3.950463 12.348652 11.465235 -0.641269 -40.488256 -14.161422 5.610906 46.794200 6.016991 11.954893 -4.810740 0.000000 0.000000 0.000000 -11.587009 -0.251188 -40.870684 15.541512 -7.403267 43.566167 -7.552645 -18.915322 -2.879964 0.000000 0.000000 0.000000 1.091601 -0.264875 3.993173 1.941472 -0.039378 -17.060740 -0.892138 -2.019935 11.921197 4.129290 -0.983004 -19.964857 0.000000 0.000000 0.000000 3.850287 40.911932 -12.876155 -25.840083 0.771422 -3.193941 -139.476041 -42.927599 99.965066 0.000000 0.000000 0.000000 -11.333219 -37.353860 -8.792879 28.847429 -8.470307 -4.416928 133.322433 36.702389 77.909349 0.000000 0.000000 0.000000 
0.028755 0.887134 -0.101511 0.153658 3.528060 12.608288 11.636697 -0.521461 -41.158180 -14.156820 5.738725 46.929180 5.883073 11.996124 -3.314816 0.000000 0.000000 0.000000 -11.360933 -0.098487 -41.120960 15.603325 -7.332125 43.521858 -7.856171 -19.708801 -2.177451 0.000000 0.000000 0.000000 1.116809 -0.251534 3.690448 1.792806 0.016838 -17.630232 -0.613041 -1.774591 12.679905 4.110475 -0.868467 -21.092410 0.000000 0.000000 0.000000 4.328785 41.128257 -12.789096 -26.862116 2.169771 -3.585072 -137.736224 -39.985895 92.697453 0.000000 0.000000 0.000000 -11.883419 -37.121046 -8.552710 29.882071 -8.682824 -4.664990 135.195896 36.610961 80.512567 0.000000 0.000000 0.000000 
